<?xml version="1.0" encoding="utf-8"?>
<!-- Generator: Adobe Illustrator 25.1.0, SVG Export Plug-In . SVG Version: 6.00 Build 0)  -->
<svg version="1.1" id="Layer_1" xmlns="http://www.w3.org/2000/svg" xmlns:xlink="http://www.w3.org/1999/xlink" x="0px" y="0px"
	 viewBox="0 0 100.4 100.4" style="enable-background:new 0 0 100.4 100.4;" xml:space="preserve">
<style type="text/css">
	.st0{fill:#FFFFFF;}
</style>
<path class="st0" d="M94.2,18.4c-0.3-0.3-0.7-0.5-1.1-0.5H22.3l-2.9-9.7c-0.2-0.6-0.8-1.1-1.4-1.1H6.9c-0.8,0-1.5,0.7-1.5,1.5
	s0.7,1.5,1.5,1.5h10l18.2,61.1c0,0,0,0,0,0l2.3,7.7c-1.4,1.4-2.3,3.4-2.3,5.6c0,4.3,3.5,7.9,7.8,7.9c4.2,0,7.6-3.3,7.8-7.5h19.7
	c0,0.1,0,0.1,0,0.2c0,4.3,3.5,7.8,7.8,7.8s7.8-3.5,7.8-7.8s-3.5-7.8-7.8-7.8c-3.2,0-6,1.9-7.2,4.7H50.3c-0.4-1.1-1-2.1-1.8-2.9
	c-1.5-1.5-3.4-2.3-5.5-2.3c0,0,0,0,0,0c-1,0-2,0.2-2.9,0.6l-1.5-4.9h46.7c0.7,0,1.4-0.5,1.5-1.3l7.9-51.4
	C94.6,19.1,94.5,18.7,94.2,18.4z M78.2,80.2c2.7,0,4.8,2.2,4.8,4.8s-2.2,4.8-4.8,4.8s-4.8-2.2-4.8-4.8S75.6,80.2,78.2,80.2z
	 M42.9,79.6L42.9,79.6c1.3,0,2.5,0.5,3.4,1.4c0.9,0.9,1.4,2.1,1.4,3.4c0,2.7-2.2,4.9-4.8,4.9c-2.7,0-4.8-2.2-4.8-4.9
	C38.1,81.8,40.2,79.6,42.9,79.6z M83.9,69.3H37.7l-2.8-9.6c0-0.1-0.1-0.2-0.2-0.3L23.2,20.8h68.1L83.9,69.3z"/>
</svg>
