<?xml version="1.0" encoding="utf-8"?>
<!-- Generator: Adobe Illustrator 25.1.0, SVG Export Plug-In . SVG Version: 6.00 Build 0)  -->
<svg version="1.1" id="Слой_2_1_" xmlns="http://www.w3.org/2000/svg" xmlns:xlink="http://www.w3.org/1999/xlink" x="0px"
	 y="0px" viewBox="0 0 101 101" style="enable-background:new 0 0 101 101;" xml:space="preserve">
<style type="text/css">
	.st0{fill:#FFFFFF;}
</style>
<path class="st0" d="M75,17.2L75,17.2c0-0.1-0.1-0.2-0.1-0.3l-0.1-0.1c0-0.1-0.1-0.1-0.1-0.1v-0.1c-0.1-0.2-0.3-0.3-0.4-0.4
	l-0.2-0.1l0,0l-33-13.5c-0.7-0.4-1.6,0-2,0.7C39,3.5,39,3.8,39,4v12H27.5c-0.8,0-1.5,0.7-1.5,1.5v75c0,0.8,0.7,1.5,1.5,1.5h46
	c0.8,0,1.5-0.7,1.5-1.5v-75l0,0C75,17.4,75,17.3,75,17.2z M42,6.2L65.9,16H42V6.2z M72,91H29V19h43V91z"/>
<path class="st0" d="M38.9,34.5c0,5.8,4.3,10.8,10.1,11.6V53h-5c-0.8,0-1.5,0.7-1.5,1.5S43.2,56,44,56h13c0.8,0,1.5-0.7,1.5-1.5
	S57.8,53,57,53h-5v-6.8c5.9-0.7,10.4-5.7,10.4-11.7c0-0.8-0.7-1.5-1.5-1.5H40.4C39.6,33,38.9,33.7,38.9,34.5z M59.3,36
	c-0.8,4.8-5.4,7.9-10.1,7.1c-3.6-0.6-6.5-3.5-7.1-7.1H59.3z"/>
<path class="st0" d="M36,68.5c0,0.8,0.7,1.5,1.5,1.5h26c0.8,0,1.5-0.7,1.5-1.5S64.3,67,63.5,67h-26C36.7,67,36,67.7,36,68.5z"/>
<path class="st0" d="M57.2,75h-13c-0.8,0-1.5,0.7-1.5,1.5s0.7,1.5,1.5,1.5h13c0.8,0,1.5-0.7,1.5-1.5S58,75,57.2,75z"/>
</svg>
