<?xml version="1.0" encoding="utf-8"?>
<!-- Generator: Adobe Illustrator 25.1.0, SVG Export Plug-In . SVG Version: 6.00 Build 0)  -->
<svg version="1.1" id="Layer_1" xmlns="http://www.w3.org/2000/svg" xmlns:xlink="http://www.w3.org/1999/xlink" x="0px" y="0px"
	 viewBox="0 0 100.4 100.4" style="enable-background:new 0 0 100.4 100.4;" xml:space="preserve">
<style type="text/css">
	.st0{fill:#FFFFFF;}
</style>
<g>
	<path class="st0" d="M91.4,8.3H36.1c-0.8,0-1.5,0.7-1.5,1.5v22.6H9.8c-0.8,0-1.5,0.7-1.5,1.5v43.9c0,0.8,0.7,1.5,1.5,1.5h13.1
		l12.3,13c0.3,0.3,0.7,0.5,1.1,0.5c0.2,0,0.4,0,0.6-0.1c0.6-0.2,0.9-0.8,0.9-1.4l0-12h29.9c0.8,0,1.5-0.7,1.5-1.5V55.2h22.2
		c0.8,0,1.5-0.7,1.5-1.5V9.8C92.9,8.9,92.2,8.3,91.4,8.3z M66.2,76.3H36.4c-0.8,0-1.5,0.7-1.5,1.5l0,9.7L24.7,76.8
		c-0.3-0.3-0.7-0.5-1.1-0.5H11.3V35.4h23.3v18.3c0,0.8,0.7,1.5,1.5,1.5h11.2v11.1c0,0.6,0.4,1.1,0.9,1.4c0.2,0.1,0.4,0.1,0.6,0.1
		c0.4,0,0.8-0.1,1.1-0.4l12.3-12.1h4C66.2,55.2,66.2,76.3,66.2,76.3z M89.9,52.2H61.6c-0.4,0-0.8,0.2-1.1,0.4l-10.2,10v-9
		c0-0.8-0.7-1.5-1.5-1.5H37.6V11.3h52.2V52.2z"/>
	<path class="st0" d="M50,26.1C50,26.1,50,26.1,50,26.1c2.6,0,4.6-2.1,4.6-4.7c0-2.6-2.1-4.6-4.6-4.6c0,0,0,0,0,0
		c-2.6,0-4.6,2.1-4.6,4.7C45.4,24.1,47.5,26.1,50,26.1z M50,19.9C50,19.9,50,19.9,50,19.9c0.9,0,1.6,0.7,1.6,1.6
		c0,0.4-0.2,0.9-0.5,1.2c-0.3,0.3-0.7,0.5-1.2,0.5c-0.4,0-0.8-0.2-1.2-0.5c-0.3-0.3-0.5-0.7-0.5-1.2C48.4,20.6,49.1,19.9,50,19.9z"
		/>
	<path class="st0" d="M64.8,26.1C64.8,26.1,64.9,26.1,64.8,26.1c2.6,0,4.6-2.1,4.6-4.7c0-2.6-2.1-4.6-4.6-4.6c0,0,0,0,0,0
		c-2.6,0-4.6,2.1-4.6,4.7c0,1.2,0.5,2.4,1.4,3.3C62.5,25.7,63.6,26.1,64.8,26.1z M64.8,19.9C64.8,19.9,64.8,19.9,64.8,19.9
		c0.9,0,1.6,0.7,1.6,1.6c0,0.4-0.2,0.9-0.5,1.2c-0.3,0.3-0.7,0.5-1.2,0.5c0,0,0,0,0,0c-0.4,0-0.8-0.2-1.2-0.5
		c-0.3-0.3-0.5-0.7-0.5-1.2C63.2,20.6,63.9,19.9,64.8,19.9z"/>
</g>
</svg>
